<?xml version="1.0" standalone="no"?>
<!DOCTYPE svg PUBLIC "-//W3C//DTD SVG 20010904//EN"
 "http://www.w3.org/TR/2001/REC-SVG-20010904/DTD/svg10.dtd">
<svg version="1.0" xmlns="http://www.w3.org/2000/svg"
 width="700.000000pt" height="700.000000pt" viewBox="0 0 700.000000 700.000000"
 preserveAspectRatio="xMidYMid meet">
<metadata>
Created by potrace 1.14, written by Peter Selinger 2001-2017
</metadata>
<g transform="translate(0.000000,700.000000) scale(0.100000,-0.100000)"
fill="#000000" stroke="none">
<path d="M5405 6983 c-38 -8 -104 -28 -147 -44 -151 -58 -206 -104 -597 -494
l-364 -362 888 -888 887 -887 69 68 c369 366 646 649 680 694 81 108 139 251
160 391 11 74 8 231 -5 287 -33 146 -80 255 -152 353 -63 85 -667 687 -746
743 -183 129 -453 185 -673 139z"/>
<path d="M2349 4133 c-1413 -1415 -1644 -1650 -1693 -1724 -82 -125 -133 -242
-185 -424 -11 -38 -41 -140 -67 -225 -25 -85 -47 -162 -49 -170 -2 -8 -17 -62
-35 -120 -17 -58 -33 -109 -34 -115 -2 -5 -9 -30 -16 -55 -7 -25 -14 -49 -16
-55 -3 -14 -185 -631 -229 -778 -30 -98 -28 -189 5 -265 29 -68 111 -144 185
-171 99 -37 137 -32 455 62 85 25 430 127 765 225 694 205 709 210 819 261
179 85 159 66 1883 1789 893 893 1623 1625 1623 1628 0 4 -1768 1774 -1773
1774 -1 0 -738 -737 -1638 -1637z m1882 672 c118 -42 175 -184 120 -297 -14
-31 -315 -337 -1033 -1054 -1087 -1085 -1033 -1036 -1137 -1036 -110 0 -211
100 -211 209 0 101 -53 43 1028 1126 554 555 1023 1019 1043 1032 59 38 120
44 190 20z m-2700 -2842 c1 -248 2 -260 25 -304 25 -50 54 -77 107 -99 47 -21
66 -22 288 -22 l238 0 -24 -56 c-13 -32 -40 -100 -61 -152 -21 -52 -48 -103
-59 -113 -41 -37 -145 -77 -365 -142 -124 -37 -263 -78 -310 -92 -47 -13 -92
-26 -100 -28 -8 -2 -37 -10 -65 -18 -27 -9 -106 -32 -175 -52 -69 -20 -145
-43 -169 -51 -25 -8 -46 -13 -47 -11 -1 1 6 26 16 55 10 28 17 52 15 52 -3 0
0 12 6 28 6 15 17 50 24 77 7 28 36 127 64 220 62 206 96 322 156 523 45 153
75 226 112 271 12 15 73 45 164 82 79 31 147 58 152 58 4 1 7 -101 8 -226z"/>
</g>
</svg>
